<svg width="50" height="50" viewBox="0 0 50 50" fill="none" xmlns="http://www.w3.org/2000/svg">
<path d="M23.4373 12.5003V41.4795C23.4373 42.9587 21.9373 43.9795 20.5832 43.417C16.7082 41.792 11.8957 40.3753 8.479 39.917L7.83317 39.8337C5.81234 39.5837 4.1665 37.7295 4.1665 35.7087V10.9378C4.1665 8.43783 6.18734 6.41699 8.68734 6.41699H8.83317C12.7498 6.75033 18.5207 8.58366 22.3332 10.6462C23.0207 11.0212 23.4373 11.7087 23.4373 12.5003Z" fill="white"/>
<path d="M41.3125 6.41699H41.1875C40.6875 6.45866 40.1458 6.52116 39.5833 6.62533C37.0208 7.04199 33.9792 7.91699 31.25 9.00033C29.9583 9.52116 28.75 10.0837 27.6875 10.6462C27 11.0212 26.5625 11.7295 26.5625 12.5003V41.4795C26.5625 42.9587 28.0625 43.9795 29.4167 43.417C33.2917 41.792 38.1042 40.3753 41.5208 39.917L42.1667 39.8337C44.1875 39.5837 45.8333 37.7295 45.8333 35.7087V10.9378C45.8333 8.43783 43.8125 6.41699 41.3125 6.41699ZM40.1458 28.6045C40.1458 29.417 39.5625 29.7712 38.8542 29.3753L36.6458 28.1462C36.4167 28.0212 36.0417 28.0212 35.7917 28.1462L33.5833 29.3753C32.875 29.7712 32.2917 29.417 32.2917 28.6045V22.2087C32.2917 21.2503 33.0833 20.4587 34.0417 20.4587H38.4167C39.375 20.4587 40.1667 21.2503 40.1667 22.2087V28.6045H40.1458Z" fill="white"/>
</svg>
