<svg width="50" height="50" viewBox="0 0 50 50" fill="none" xmlns="http://www.w3.org/2000/svg">
<path d="M45.3125 16.6663C45.3125 17.5205 44.6042 18.2288 43.75 18.2288H6.25C5.39583 18.2288 4.6875 17.5205 4.6875 16.6663C4.6875 15.8122 5.39583 15.1038 6.25 15.1038H8.375L9.16667 11.333C9.91667 7.68717 11.4792 4.33301 17.6875 4.33301H32.3125C38.5208 4.33301 40.0833 7.68717 40.8333 11.333L41.625 15.1038H43.75C44.6042 15.1038 45.3125 15.8122 45.3125 16.6663Z" fill="#0A0A0B"/>
<path d="M46.2085 28.4587C45.896 25.0212 44.9793 21.3545 38.2918 21.3545H11.7085C5.02097 21.3545 4.12514 25.0212 3.7918 28.4587L2.62514 41.1462C2.4793 42.7295 3.00014 44.3128 4.08347 45.5003C5.18764 46.7087 6.75014 47.3962 8.4168 47.3962H12.3335C15.7085 47.3962 16.3543 45.4587 16.771 44.1878L17.1876 42.9378C17.6668 41.5003 17.7918 41.1462 19.6668 41.1462H30.3335C32.2085 41.1462 32.271 41.3545 32.8126 42.9378L33.2293 44.1878C33.646 45.4587 34.2918 47.3962 37.6668 47.3962H41.5835C43.2293 47.3962 44.8126 46.7087 45.9168 45.5003C47.0001 44.3128 47.521 42.7295 47.3751 41.1462L46.2085 28.4587ZM18.7501 32.8128H12.5001C11.646 32.8128 10.9376 32.1045 10.9376 31.2503C10.9376 30.3962 11.646 29.6878 12.5001 29.6878H18.7501C19.6043 29.6878 20.3126 30.3962 20.3126 31.2503C20.3126 32.1045 19.6043 32.8128 18.7501 32.8128ZM37.5001 32.8128H31.2501C30.396 32.8128 29.6876 32.1045 29.6876 31.2503C29.6876 30.3962 30.396 29.6878 31.2501 29.6878H37.5001C38.3543 29.6878 39.0626 30.3962 39.0626 31.2503C39.0626 32.1045 38.3543 32.8128 37.5001 32.8128Z" fill="#0A0A0B"/>
</svg>
