<svg width="50" height="50" viewBox="0 0 50 50" fill="none" xmlns="http://www.w3.org/2000/svg">
<path d="M46.5415 19.4378L42.3748 17.3545C41.604 16.9795 40.6457 17.2712 40.2707 18.042C39.8748 18.8337 40.1873 19.7712 40.9582 20.1462L44.2707 21.792V31.7712L36.4582 31.792V10.417C36.4582 6.25033 33.6665 4.16699 30.2082 4.16699H13.5415C10.0832 4.16699 7.2915 6.25033 7.2915 10.417V44.2712H4.1665C3.31234 44.2712 2.604 44.9795 2.604 45.8337C2.604 46.6878 3.31234 47.3962 4.1665 47.3962H39.5832C40.4373 47.3962 41.1457 46.6878 41.1457 45.8337C41.1457 44.9795 40.4373 44.2712 39.5832 44.2712H36.4582V34.917L45.8332 34.8962C46.7082 34.8962 47.3957 34.1878 47.3957 33.3337V20.8337C47.3957 20.2503 47.0623 19.7087 46.5415 19.4378ZM12.4998 14.3545C12.4998 11.4587 14.2707 10.417 16.4373 10.417H27.3332C29.479 10.417 31.2498 11.4587 31.2498 14.3545V16.917C31.2498 19.792 29.479 20.8337 27.3123 20.8337H16.4373C14.2707 20.8337 12.4998 19.792 12.4998 16.8962V14.3545ZM13.5415 25.5212H19.7915C20.6457 25.5212 21.354 26.2295 21.354 27.0837C21.354 27.9378 20.6457 28.6462 19.7915 28.6462H13.5415C12.6873 28.6462 11.979 27.9378 11.979 27.0837C11.979 26.2295 12.6873 25.5212 13.5415 25.5212Z" fill="#0A0A0B"/>
</svg>
