<svg width="30" height="30" viewBox="0 0 30 30" fill="none" xmlns="http://www.w3.org/2000/svg">
<path d="M27.5001 16.0754C27.5001 18.9379 26.0251 21.4754 23.7501 23.0754L22.0751 26.7629C21.6876 27.6004 20.5626 27.7629 19.9751 27.0504L18.1251 24.8254C15.8001 24.8254 13.6626 24.0379 12.0376 22.7254L12.7876 21.8379C18.5626 21.4004 23.1251 16.8254 23.1251 11.2504C23.1251 10.3004 22.9876 9.36289 22.7376 8.46289C25.5751 9.96289 27.5001 12.8129 27.5001 16.0754Z" fill="white"/>
<path d="M20.375 7.5875C18.9125 4.5875 15.65 2.5 11.875 2.5C6.7 2.5 2.5 6.4125 2.5 11.25C2.5 14.1125 3.975 16.65 6.25 18.25L7.925 21.9375C8.3125 22.775 9.4375 22.925 10.025 22.225L10.7125 21.4L11.875 20C17.05 20 21.25 16.0875 21.25 11.25C21.25 9.9375 20.9375 8.7 20.375 7.5875ZM15 12.1875H8.75C8.2375 12.1875 7.8125 11.7625 7.8125 11.25C7.8125 10.7375 8.2375 10.3125 8.75 10.3125H15C15.5125 10.3125 15.9375 10.7375 15.9375 11.25C15.9375 11.7625 15.5125 12.1875 15 12.1875Z" fill="white"/>
</svg>
