<svg width="50" height="50" viewBox="0 0 50 50" fill="none" xmlns="http://www.w3.org/2000/svg">
<path d="M33.8335 4.16699H16.1668C10.4168 4.16699 8.3335 6.25033 8.3335 12.1045V37.8962C8.3335 43.7503 10.4168 45.8337 16.1668 45.8337H33.8127C39.5835 45.8337 41.6668 43.7503 41.6668 37.8962V12.1045C41.6668 6.25033 39.5835 4.16699 33.8335 4.16699ZM25.0002 40.2087C23.0002 40.2087 21.3543 38.5628 21.3543 36.5628C21.3543 34.5628 23.0002 32.917 25.0002 32.917C27.0002 32.917 28.646 34.5628 28.646 36.5628C28.646 38.5628 27.0002 40.2087 25.0002 40.2087ZM29.1668 13.0212H20.8335C19.9793 13.0212 19.271 12.3128 19.271 11.4587C19.271 10.6045 19.9793 9.89616 20.8335 9.89616H29.1668C30.021 9.89616 30.7293 10.6045 30.7293 11.4587C30.7293 12.3128 30.021 13.0212 29.1668 13.0212Z" fill="#0A0A0B"/>
</svg>
