<svg width="50" height="50" viewBox="0 0 50 50" fill="none" xmlns="http://www.w3.org/2000/svg">
<path d="M35.4165 8.33301H14.5832C8.33317 8.33301 4.1665 11.458 4.1665 18.7497V26.1663C4.1665 26.9372 4.95817 27.4163 5.64567 27.1038C7.68734 26.1663 10.0415 25.8122 12.5207 26.2497C17.9998 27.2288 22.0207 32.3122 21.8748 37.8747C21.854 38.7497 21.729 39.6038 21.4998 40.4372C21.3332 41.083 21.854 41.6872 22.5207 41.6872H35.4165C41.6665 41.6872 45.8332 38.5622 45.8332 31.2705V18.7497C45.8332 11.458 41.6665 8.33301 35.4165 8.33301ZM24.9998 30.208C22.1248 30.208 19.7915 27.8747 19.7915 24.9997C19.7915 22.1247 22.1248 19.7913 24.9998 19.7913C27.8748 19.7913 30.2082 22.1247 30.2082 24.9997C30.2082 27.8747 27.8748 30.208 24.9998 30.208ZM40.104 29.1663C40.104 30.0205 39.3957 30.7288 38.5415 30.7288C37.6873 30.7288 36.979 30.0205 36.979 29.1663V20.833C36.979 19.9788 37.6873 19.2705 38.5415 19.2705C39.3957 19.2705 40.104 19.9788 40.104 20.833V29.1663Z" fill="#0A0A0B"/>
<path d="M10.4168 29.167C5.81266 29.167 2.0835 32.8962 2.0835 37.5003C2.0835 39.0628 2.521 40.542 3.29183 41.792C4.72933 44.2087 7.37516 45.8337 10.4168 45.8337C13.4585 45.8337 16.1043 44.2087 17.5418 41.792C18.3127 40.542 18.7502 39.0628 18.7502 37.5003C18.7502 32.8962 15.021 29.167 10.4168 29.167ZM13.521 39.0212H11.9793V40.6462C11.9793 41.5003 11.271 42.2087 10.4168 42.2087C9.56266 42.2087 8.85433 41.5003 8.85433 40.6462V39.0212H7.31266C6.4585 39.0212 5.75016 38.3128 5.75016 37.4587C5.75016 36.6045 6.4585 35.8962 7.31266 35.8962H8.85433V34.417C8.85433 33.5628 9.56266 32.8545 10.4168 32.8545C11.271 32.8545 11.9793 33.5628 11.9793 34.417V35.8962H13.521C14.3752 35.8962 15.0835 36.6045 15.0835 37.4587C15.0835 38.3128 14.396 39.0212 13.521 39.0212Z" fill="#0A0A0B"/>
</svg>
