<svg width="30" height="30" viewBox="0 0 30 30" fill="none" xmlns="http://www.w3.org/2000/svg">
<path d="M26.9124 19.9127C26.7124 19.5752 26.1499 19.0502 24.7499 19.3002C23.9749 19.4377 23.1874 19.5002 22.3999 19.4627C19.4874 19.3377 16.8499 18.0002 15.0124 15.9377C13.3874 14.1252 12.3874 11.7627 12.3749 9.21271C12.3749 7.78771 12.6499 6.41271 13.2124 5.11271C13.7624 3.85021 13.3749 3.18771 13.0999 2.91271C12.8124 2.62521 12.1374 2.22521 10.8124 2.77521C5.69988 4.92521 2.53738 10.0502 2.91238 15.5377C3.28738 20.7002 6.91238 25.1127 11.7124 26.7752C12.8624 27.1752 14.0749 27.4127 15.3249 27.4627C15.5249 27.4752 15.7249 27.4877 15.9249 27.4877C20.1124 27.4877 24.0374 25.5127 26.5124 22.1502C27.3499 20.9877 27.1249 20.2502 26.9124 19.9127Z" fill="white"/>
</svg>
