<svg width="42" height="42" viewBox="0 0 42 42" fill="none" xmlns="http://www.w3.org/2000/svg">
<path d="M37.9582 9.62533C37.0623 8.97949 36.0415 8.50033 34.9373 8.22949C34.1873 8.02116 33.4165 7.91699 32.6248 7.91699H24.8748C23.6665 7.91699 23.5832 7.81283 22.9373 6.95866L20.0207 3.08366C18.6665 1.27116 17.604 0.166992 14.2082 0.166992H9.37484C4.2915 0.166992 0.166504 4.29199 0.166504 9.37533V32.6253C0.166504 37.7087 4.2915 41.8337 9.37484 41.8337H32.6248C37.7082 41.8337 41.8332 37.7087 41.8332 32.6253V17.1253C41.8332 14.0212 40.3123 11.292 37.9582 9.62533ZM25.979 30.042H15.9998C15.1873 30.042 14.5623 29.3962 14.5623 28.5837C14.5623 27.792 15.1873 27.1253 15.9998 27.1253H25.979C26.7915 27.1253 27.4373 27.792 27.4373 28.5837C27.4373 29.3962 26.7915 30.042 25.979 30.042Z" fill="#E4E4E4"/>
</svg>
