<svg width="30" height="30" viewBox="0 0 30 30" fill="none" xmlns="http://www.w3.org/2000/svg">
<path d="M26.1373 13.9004V8.41289C26.1373 7.38789 25.3623 6.22539 24.3998 5.83789L17.4373 2.98789C15.8748 2.35039 14.1123 2.35039 12.5498 2.98789L5.5873 5.83789C4.6373 6.22539 3.8623 7.38789 3.8623 8.41289V13.9004C3.8623 20.0129 8.2998 25.7379 14.3623 27.4129C14.7748 27.5254 15.2248 27.5254 15.6373 27.4129C21.6998 25.7379 26.1373 20.0129 26.1373 13.9004ZM15.9373 16.0879V19.3754C15.9373 19.8879 15.5123 20.3129 14.9998 20.3129C14.4873 20.3129 14.0623 19.8879 14.0623 19.3754V16.0879C12.7998 15.6879 11.8748 14.5129 11.8748 13.1254C11.8748 11.4004 13.2748 10.0004 14.9998 10.0004C16.7248 10.0004 18.1248 11.4004 18.1248 13.1254C18.1248 14.5254 17.1998 15.6879 15.9373 16.0879Z" fill="white"/>
</svg>
