<svg width="30" height="30" viewBox="0 0 30 30" fill="none" xmlns="http://www.w3.org/2000/svg">
<path d="M19.725 2.5H10.275C5.55 2.5 4.375 3.7625 4.375 8.8V22.875C4.375 26.2 6.2 26.9875 8.4125 24.6125L8.425 24.6C9.45 23.5125 11.0125 23.6 11.9 24.7875L13.1625 26.475C14.175 27.8125 15.8125 27.8125 16.825 26.475L18.0875 24.7875C18.9875 23.5875 20.55 23.5 21.575 24.6C23.8 26.975 25.6125 26.1875 25.6125 22.8625V8.8C25.625 3.7625 24.45 2.5 19.725 2.5ZM18.4375 13.4375H11.5625C11.05 13.4375 10.625 13.0125 10.625 12.5C10.625 11.9875 11.05 11.5625 11.5625 11.5625H18.4375C18.95 11.5625 19.375 11.9875 19.375 12.5C19.375 13.0125 18.95 13.4375 18.4375 13.4375Z" fill="white"/>
</svg>
